<svg width="114" height="114" viewBox="0 0 114 114" fill="none" xmlns="http://www.w3.org/2000/svg">
<g id="building-icon">
<circle id="Ellipse 4" cx="57" cy="57" r="57" fill="#CB333B"/>
<g id="Vector">
<path d="M22.9078 49.8839L35.4087 28.0479H78.5198L91.0207 49.8839" fill="#CB333B"/>
<path d="M22.9078 49.8839L35.4087 28.0479H78.5198L91.0207 49.8839" stroke="white" stroke-width="2" stroke-linecap="round" stroke-linejoin="round"/>
</g>
<path id="Vector_2" d="M72.3581 49.8838L56.9643 37.3062L41.5705 49.8838H27.5715V77.9516H41.5705H72.3581H86.357V49.8838H72.3581Z" fill="#CB333B" stroke="white" stroke-width="2" stroke-linecap="round" stroke-linejoin="round"/>
<path id="Vector_3" d="M60.9404 54.7899C63.1369 52.5827 63.1369 49.0042 60.9404 46.797C58.7439 44.5898 55.1827 44.5898 52.9862 46.797C50.7898 49.0042 50.7898 52.5827 52.9862 54.7899C55.1827 56.9971 58.7439 56.9971 60.9404 54.7899Z" stroke="white" stroke-width="2" stroke-linecap="round" stroke-linejoin="round"/>
<path id="Vector_4" d="M56.9643 63.1719C53.7378 63.1719 51.1201 65.7997 51.1201 69.0445V77.9544H62.8058V69.0445C62.8058 65.8023 60.1907 63.1719 56.9616 63.1719H56.9643Z" fill="#CB333B" stroke="white" stroke-width="2" stroke-linecap="round" stroke-linejoin="round"/>
<path id="Vector_5" d="M37.2376 67.2944H31.3723V73.824H37.2376V67.2944Z" fill="#CB333B" stroke="white" stroke-width="2" stroke-linecap="round" stroke-linejoin="round"/>
<path id="Vector_6" d="M46.8032 67.2944H40.9379V73.824H46.8032V67.2944Z" fill="#CB333B" stroke="white" stroke-width="2" stroke-linecap="round" stroke-linejoin="round"/>
<path id="Vector_7" d="M37.2376 55.0386H31.3723V61.5681H37.2376V55.0386Z" fill="#CB333B" stroke="white" stroke-width="2" stroke-linecap="round" stroke-linejoin="round"/>
<path id="Vector_8" d="M46.8032 55.0386H40.9379V61.5681H46.8032V55.0386Z" fill="#CB333B" stroke="white" stroke-width="2" stroke-linecap="round" stroke-linejoin="round"/>
<path id="Vector_9" d="M72.6307 67.2944H66.7654V73.824H72.6307V67.2944Z" fill="#CB333B" stroke="white" stroke-width="2" stroke-linecap="round" stroke-linejoin="round"/>
<path id="Vector_10" d="M88.6201 77.9517H25.3059V81.8508H88.6201V77.9517Z" fill="#CB333B" stroke="white" stroke-width="2" stroke-linecap="round" stroke-linejoin="round"/>
<path id="Vector_11" d="M91.0207 81.8481H22.9078V85.7473H91.0207V81.8481Z" fill="#CB333B" stroke="white" stroke-width="2" stroke-linecap="round" stroke-linejoin="round"/>
<path id="Vector_12" d="M82.1962 67.2944H76.3309V73.824H82.1962V67.2944Z" fill="#CB333B" stroke="white" stroke-width="2" stroke-linecap="round" stroke-linejoin="round"/>
<path id="Vector_13" d="M72.6307 55.0386H66.7654V61.5681H72.6307V55.0386Z" fill="#CB333B" stroke="white" stroke-width="2" stroke-linecap="round" stroke-linejoin="round"/>
<path id="Vector_14" d="M82.1962 55.0386H76.3309V61.5681H82.1962V55.0386Z" fill="#CB333B" stroke="white" stroke-width="2" stroke-linecap="round" stroke-linejoin="round"/>
<path id="Vector_15" d="M56.9642 47.9053V51.2219" stroke="white" stroke-width="2" stroke-linecap="round" stroke-linejoin="round"/>
<path id="Vector_16" d="M56.9642 51.2219L59.1161 50.1846" stroke="white" stroke-width="2" stroke-linecap="round" stroke-linejoin="round"/>
<path id="Vector_17" d="M91.0207 49.884H86.3571" stroke="white" stroke-width="2" stroke-linecap="round" stroke-linejoin="round"/>
<path id="Vector_18" d="M35.4087 49.8839L56.9643 31.8086L78.5198 49.8812" stroke="white" stroke-width="2" stroke-linecap="round" stroke-linejoin="round"/>
<path id="Vector_19" d="M27.5715 49.884H22.9078" stroke="white" stroke-width="2" stroke-linecap="round" stroke-linejoin="round"/>
</g>
</svg>
