<svg width="810" height="584" viewBox="0 0 810 584" fill="none" xmlns="http://www.w3.org/2000/svg">
<g clip-path="url(#clip0_160_30)">
<path d="M269.241 8.52943L240.307 27.1309L216.203 42.6271C215.878 42.8337 175.318 68.0769 133.884 68.4402C129.086 68.4753 124.409 68.1994 119.971 67.5573L66.3131 59.8281L1.92005 50.5306L53.0954 90.7167L95.4514 123.99C96.5463 124.963 106.621 134.191 109.753 148.141L119.221 190.003L130.552 240.24L151.962 193.362L169.794 154.321L172.499 148.365C182.097 147.563 191.162 145.947 199.698 143.482C201.873 148.866 204.101 154.149 206.351 159.288C212.92 174.204 219.533 187.405 226.164 198.815C214.106 206.599 203.639 216.896 196.093 228.664C186.566 243.571 177.293 267.814 183.874 301.291C174.037 311.062 162.862 325.021 154.908 343.28C138.337 381.489 141.292 423.6 163.618 468.453L166.762 474.681L173.551 488.166L181.713 504.386L197.557 495.534L210.761 488.145L216.239 485.102C217.806 484.427 227.502 480.601 244.095 480.467C253.988 480.369 264.594 481.588 275.638 484.009C291.575 511.814 312.531 535.995 336.645 554.362C358.009 570.624 374.128 576.457 374.265 576.514L386.025 580.472L388.288 581.221L399.039 584.842L404.743 586.776L410.395 584.748L421.077 580.927L423.32 580.135L434.968 575.986C434.968 575.986 451.214 569.758 472.266 553.172C496.066 534.408 516.657 509.845 532.111 481.788C543.125 479.152 553.691 477.766 563.584 477.668C580.142 477.528 589.864 481.175 591.55 481.872L597.059 484.837L610.347 491.958L626.305 500.511L634.184 484.181L640.766 470.581L643.759 464.413C665.41 419.073 667.663 376.88 650.458 338.96C642.223 320.825 630.828 307.075 620.814 297.454C625.423 271.655 621.416 247.651 608.981 227.555C600.537 213.891 589.846 204.386 580.194 197.894C587.036 185.945 593.868 171.908 600.551 155.981C602.742 150.751 604.919 145.374 607.03 139.949C615.605 142.249 624.74 143.755 634.344 144.346L637.175 150.233L655.645 188.969L677.833 235.448L688.338 184.999L697.081 142.957C700.007 128.871 710.009 119.455 711.032 118.513L752.862 84.4956L803.43 43.3577L739.118 53.8403L685.539 62.5598C681.148 63.2795 676.48 63.6638 671.682 63.6989C630.248 64.0622 589.231 39.4865 588.829 39.2421L564.558 24.2922L535.371 6.32107L538.114 40.4922L540.408 68.9939C544.012 113.547 513.419 152.541 490.578 175.076C470.393 169.756 448.595 166.606 424.351 165.571C416.561 165.075 403.099 165.067 401.257 165.151C400.127 165.125 386.852 165.328 379.635 165.872C355.868 167.216 334.849 170.445 315.754 175.688C292.935 153.639 262.234 115.449 265.105 71.3737L266.966 42.7386L269.191 8.37541L269.241 8.52943Z" fill="#840029"/>
<path d="M249.662 41.7761L225.552 57.308C225.145 57.5753 180.921 85.4797 133.994 85.8815C128.316 85.9284 122.74 85.5516 117.474 84.8196L63.8162 77.0904L106.466 110.592C106.466 110.592 121.974 123.286 126.721 144.366L136.189 186.228L154.027 147.15L161.13 131.58C182.984 131.261 198.909 126.412 209.754 121.297C212.915 129.798 217.173 140.699 222.338 152.361C231.997 174.338 241.637 192.139 251.203 205.645C251.085 205.701 250.972 205.72 250.854 205.775C224.401 215.824 186.495 248.099 203.271 307.222C192.885 316.03 179.704 330.195 171 350.243C156.577 383.509 159.371 420.69 179.328 460.715L182.441 466.902L189.23 480.386L202.429 473.033L208.473 469.638C209.424 469.161 221.775 463.289 244.088 463.077C257.643 462.953 272.159 464.916 287.309 468.954C324.32 538.566 379.446 559.881 380.002 560.076L391.726 564.028L393.989 564.777L404.74 568.398L415.422 564.577L417.666 563.785L429.313 559.636C429.893 559.432 484.632 537.162 520.488 466.905C535.559 462.62 550.02 460.402 563.612 460.284C585.96 460.077 598.439 465.792 599.324 466.221L605.408 469.494L618.696 476.614L625.279 463.015L628.272 456.846C647.602 416.386 649.784 379.198 634.795 346.156C625.77 326.252 612.316 312.334 601.785 303.695C616.955 246.675 582.115 215.21 555.792 204.339C565.41 190.508 575.075 172.072 584.717 149.239C589.67 137.441 593.807 126.432 596.84 117.854C607.757 122.781 623.776 127.354 645.627 127.291L652.994 142.731L671.465 181.467L680.208 139.424C684.616 118.281 699.8 105.374 699.965 105.253L742.043 71.0532L688.464 79.7727C683.213 80.617 677.653 81.0847 671.976 81.1317C625.048 81.5335 580.4 54.3892 579.927 54.1338L555.584 39.173L557.878 67.6747C562.516 124.832 519.734 172.468 495.49 194.606C479.908 189.807 456.91 184.46 423.545 183.019C416.226 182.558 410.201 182.479 406.467 182.494C405.219 182.523 403.352 182.53 401.545 182.62C400.558 182.615 398.953 182.589 396.758 182.583C393.28 182.601 387.734 182.741 380.921 183.273C354.498 184.76 331.652 188.698 311.366 195.26C287.066 173.57 244.267 126.941 247.925 70.3203L249.786 41.6852L249.662 41.7761Z" fill="white"/>
<path d="M249.663 41.7766L247.802 70.4117C244.149 126.997 286.948 173.626 311.243 195.352C331.528 188.79 354.375 184.852 380.798 183.365C387.611 182.832 400.441 182.671 401.422 182.711C403.264 182.627 416.108 182.614 423.422 183.11C456.787 184.551 479.785 189.899 495.367 194.697C519.61 172.56 562.393 124.923 557.755 67.7661L555.461 39.2645L579.804 54.2253C580.277 54.4806 624.925 81.6249 671.852 81.2231C677.53 81.1762 683.09 80.7084 688.341 79.8641L741.92 71.1446L699.841 105.344C699.841 105.344 684.493 118.372 680.084 139.516L671.342 181.558L652.871 142.822L645.504 127.382C623.652 127.445 607.633 122.873 596.717 117.945C593.684 126.524 589.583 137.537 584.594 149.331C574.987 172.169 565.323 190.605 555.669 204.431C582.028 215.307 616.868 246.772 601.662 303.787C612.192 312.426 625.646 326.344 634.672 346.247C649.666 379.253 647.478 416.478 628.149 456.938L625.155 463.106L618.573 476.706L605.285 469.585L599.201 466.312C598.28 465.878 585.837 460.169 563.488 460.375C549.933 460.499 535.436 462.712 520.365 466.996C484.514 537.218 429.775 559.487 429.19 559.727L404.616 568.489L379.879 560.167C379.323 559.972 324.233 538.663 287.186 469.045C272.066 465.049 257.55 463.086 243.964 463.168C221.693 463.35 209.301 469.252 208.35 469.729L202.306 473.125L189.107 480.478L182.318 466.993L179.204 460.806C159.253 420.746 156.454 383.601 170.877 350.334C179.581 330.286 192.798 316.127 203.148 307.313C186.372 248.19 224.277 215.915 250.731 205.866C250.849 205.811 250.962 205.792 251.08 205.737C241.55 192.236 231.879 174.394 222.215 152.452C217.085 140.796 212.828 129.895 209.63 121.389C198.786 126.503 182.861 131.353 161.007 131.672L153.903 147.241L136.066 186.319L126.598 144.457C121.85 123.378 106.445 110.735 106.343 110.683L63.6929 77.1819L117.351 84.911C122.611 85.6788 128.193 86.0199 133.871 85.9729C180.798 85.5711 225.022 57.6667 225.429 57.3995L249.539 41.8675" fill="white"/>
<path d="M572.175 66.5304C577.75 135.252 523.223 190.062 498.767 210.958C498.66 210.942 498.588 210.931 498.517 210.92C482.354 205.374 459.064 199.067 422.641 197.524C410.578 196.741 402.396 197.137 401.552 197.154C400.713 197.136 393.099 196.924 381.771 197.79C345.83 199.799 323.282 206.088 308.146 211.754C282.908 190.69 228.986 137.381 233.382 69.4882C233.382 69.4882 174.058 107.603 115.39 99.1445C115.39 99.1445 134.79 114.374 140.825 141.142L151.883 116.952C198.012 119.137 217.296 99.2792 217.296 99.2792C217.296 99.2792 245.615 186.708 278.314 214.953C271.199 215.073 263.748 216.423 255.908 219.361C249.5 221.786 194.923 244.666 220.179 312.444C203.658 324.048 150.173 369.901 192.236 454.306L195.325 460.416L201.528 456.935C201.847 456.764 235.478 438.552 296.912 456.658C297.019 456.675 297.091 456.686 297.198 456.702C330.468 523.509 381.945 545.475 384.55 546.385L396.274 550.338L393.099 539.053C383.171 503.783 397.012 481.007 403.879 474.15C410.865 480.856 425.05 503.378 415.704 538.849L412.725 550.181L424.372 546.032C426.964 545.11 478.099 522.253 510.222 454.866C510.299 454.841 510.412 454.822 510.489 454.797C571.595 435.624 605.522 453.222 605.858 453.42L612.146 456.797L615.139 450.629C655.8 365.475 601.584 320.541 584.834 309.268C608.962 241.061 554.036 219.154 547.548 216.844C541.27 214.602 535.242 213.351 529.492 212.911C561.796 184.246 588.801 96.0521 588.801 96.0521C588.801 96.0521 608.418 115.598 654.496 112.614L665.93 136.619C671.506 109.761 690.645 94.2006 690.645 94.2006C632.117 103.701 572.2 66.6074 572.2 66.6074" fill="#231F20"/>
<path d="M573.736 317.234L568.898 314.664L570.814 309.795C593.672 251.791 555.155 232.869 542.842 228.46C494.178 211.061 466.645 268.058 465.5 270.519C464.036 273.626 460.166 275.011 456.896 273.669C453.625 272.327 452.097 268.689 453.555 265.617C459.259 253.457 470.704 237.014 486.73 225.773C449.041 207.417 402.821 209.648 402.34 209.684C401.829 209.679 354.271 208.227 316.934 227.228C333.145 238.199 344.851 254.449 350.759 266.518C352.262 269.603 350.829 273.228 347.542 274.629C344.254 276.029 340.396 274.707 338.892 271.622C337.689 269.205 309.21 212.685 260.87 230.918C248.598 235.558 210.407 255.123 234.221 312.723L236.223 317.569L231.429 320.204C228.59 321.783 163.137 359.546 201.438 443.669C214.069 438.828 244.428 430.988 290.642 442.411C290.642 442.411 306.496 446.629 307.683 449.153C329.953 496.048 361.063 520.573 377.665 529.701C370.729 485.407 398.373 462.325 399.676 461.463C400.901 460.625 402.342 460.297 403.758 460.367C405.16 460.288 406.61 460.62 407.845 461.394C409.14 462.251 437.181 484.843 431.002 529.254C447.727 519.658 479.39 493.75 500.716 445.029L516.598 440.465C562.627 428.248 593.119 435.547 605.833 440.2C642.706 355.419 576.682 318.783 573.808 317.245" fill="#E03643"/>
<path d="M605.761 440.19C633.092 377.342 603.902 340.993 585.787 325.74C595.303 352.71 605.183 410.999 527.077 437.969C567.203 429.425 594.051 435.91 605.761 440.19Z" fill="#840029"/>
<path d="M284.454 408.518C284.454 408.518 258.584 429.565 236.072 436.812C250.617 435.961 268.815 437.06 290.6 442.441C290.6 442.441 291.758 442.764 293.406 443.236C289.552 431.848 281.579 411.044 284.454 408.518Z" fill="#840029"/>
<path d="M513.775 406.575L513.847 406.586C514.179 405.612 514.714 404.742 515.407 404.043C503.741 405.444 475.715 405.697 448.463 382.494C448.463 382.494 405.627 341.607 358.322 380.791C358.322 380.791 348.624 390.839 359.52 388.259C359.52 388.259 396.051 343.217 474.919 417.107C474.919 417.107 481.064 480.425 431.817 517.958C431.775 521.575 431.574 525.278 431.007 529.219C446.606 520.292 475.177 497.133 496.256 454.561C503.138 440.677 509.233 424.77 513.775 406.575Z" fill="#840029"/>
<path d="M267.891 283.974C268.18 283.762 273.811 278.766 282.77 279.99C293.343 281.423 302.912 290.611 319.691 311.004C319.691 311.004 336.111 336.138 352.212 344.238C353.285 344.878 354.448 345.641 355.482 346.532L355.59 346.548C353.803 342.687 348.65 337.873 331.839 320.073C320.473 308.049 305.925 276.429 285.97 270.559C253.063 260.877 246.68 287.503 247.353 308.911C247.769 322.446 251.545 333.384 251.545 333.384C247.624 319.569 246.819 299.019 267.856 283.969" fill="#840029"/>
<path d="M482.346 309.593C498.795 288.899 508.204 279.539 518.767 277.933C527.686 276.551 533.405 281.489 533.705 281.681C548.46 291.881 552.763 304.876 552.773 316.518C554.805 294.645 553.228 256.442 514.453 268.597C494.585 274.82 480.595 306.689 469.434 318.893C452.909 336.976 446.968 343.755 445.277 347.633L447.343 345.606C448.349 344.772 449.38 344.014 450.389 343.4C466.339 335.04 482.376 309.634 482.381 309.598" fill="#840029"/>
<path d="M452.233 382.485C433.112 360.416 406.685 359.779 402.179 359.822L402.107 359.811L402.036 359.8C397.535 359.808 371.095 360.926 352.337 383.317C351.219 384.647 351.47 386.589 352.887 387.611C353.476 388.067 354.216 388.253 354.911 388.25C355.863 388.249 356.803 387.843 357.47 387.067C373.956 367.331 397.687 365.981 401.8 365.878L402.133 365.855L402.455 365.905L402.466 365.833C406.563 365.837 430.306 366.796 447.121 386.243C447.773 387.001 448.741 387.369 449.692 387.368C450.424 387.37 451.116 387.147 451.735 386.692C453.142 385.626 453.366 383.683 452.213 382.372" fill="#231F20"/>
<path d="M584.807 309.446C608.934 241.239 554.009 219.332 547.521 217.022C538.709 213.881 530.385 212.571 522.566 212.986C516.071 213.348 507.212 212.432 498.514 211.175C482.351 205.629 459.061 199.322 422.639 197.779C410.576 196.996 402.393 197.392 401.549 197.41C400.71 197.391 393.097 197.179 381.769 198.046C333.985 200.696 309.836 210.987 295.35 217.192C283.541 214.031 270.324 214.097 255.916 219.545C249.508 221.969 194.932 244.85 220.187 312.627C203.666 324.231 150.181 370.085 192.244 454.49L195.333 460.6L201.537 457.119C201.856 456.948 235.486 438.735 296.92 456.842C297.027 456.858 297.099 456.869 297.206 456.886C330.476 523.693 381.954 545.658 384.558 546.569L396.282 550.522L393.108 539.237C383.185 503.931 397.026 481.155 403.888 474.334C410.873 481.039 425.058 503.562 415.712 539.033L412.733 550.365L424.38 546.216C426.973 545.294 478.107 522.436 510.23 455.05C510.302 455.061 510.42 455.005 510.497 454.981C571.604 435.808 605.531 453.406 605.866 453.603L612.154 456.981L615.147 450.813C655.809 365.659 601.556 320.719 584.843 309.451M605.762 440.189C593.048 435.536 562.55 428.273 516.562 440.46C519.313 433.486 521.838 426.075 524.107 418.185C529.443 421.088 534.889 423.751 540.486 426.144C547.417 429.144 553.377 418.89 546.375 415.879C538.003 412.256 529.804 408.22 522.146 403.279C518.452 400.884 514.934 403.311 513.847 406.586L513.775 406.575C495.159 480.603 451.658 517.404 430.966 529.249C436.839 487.316 412.147 464.834 408.301 461.757L407.679 387.459C407.669 384.895 405.454 382.873 402.743 382.897C400.032 382.922 397.847 385.004 397.862 387.532L398.469 462.413C393.179 467.095 371.345 489.748 377.594 529.69C356.638 518.175 312.317 481.966 292.573 407.819C292.573 407.819 292.573 407.819 292.645 407.83C292.18 407.283 291.762 406.67 291.343 406.057L291.236 406.041C289.555 404.356 287.036 403.605 284.389 405.36C276.773 410.419 268.664 414.633 260.335 418.375C253.414 421.526 259.51 431.647 266.391 428.525C271.93 426.041 277.323 423.315 282.575 420.311C284.997 428.149 287.638 435.509 290.494 442.425C244.28 431.002 213.921 438.842 201.289 443.683C162.988 359.56 228.441 321.797 231.281 320.218L236.074 317.583L234.073 312.737C210.259 255.137 248.455 235.536 260.727 230.896C309.067 212.663 337.546 269.183 338.749 271.6C340.253 274.686 344.147 276.013 347.399 274.607C350.686 273.206 352.125 269.546 350.616 266.496C344.703 254.463 333.002 238.178 316.786 227.242C354.158 208.247 400.402 209.681 400.913 209.686C401.43 209.655 448.969 207.406 486.623 225.757C470.596 236.997 459.146 253.477 453.448 265.601C451.985 268.708 453.518 272.311 456.788 273.653C460.094 275 463.929 273.61 465.393 270.503C466.532 268.078 494.07 211.045 542.735 228.444C555.084 232.858 593.565 251.774 570.707 309.779L568.791 314.648L573.629 317.218C576.503 318.755 642.533 355.356 605.655 440.173" fill="#231F20"/>
<path d="M352.247 344.243C336.141 336.179 319.721 311.046 319.691 311.004C302.917 290.575 293.343 281.424 282.77 279.99C273.811 278.766 268.174 283.798 267.891 283.974C233.501 308.587 257.49 347.837 257.903 348.486C274.039 369.257 292.27 379.696 312.122 379.547C337.657 379.315 356.058 361.409 356.833 360.649L357.19 360.228C363.419 352.76 357.215 347.163 352.247 344.243Z" fill="#231F20"/>
<path d="M445.699 359.449L446.038 359.867C446.803 360.606 465.508 378.219 491.043 377.987C510.865 377.797 528.937 367.052 544.71 345.999C545.141 345.333 568.483 305.669 533.669 281.676C533.369 281.484 527.65 276.546 518.731 277.927C508.168 279.533 498.759 288.894 482.31 309.587C482.31 309.587 466.268 335.029 450.317 343.389C445.427 346.412 439.288 352.099 445.658 359.479" fill="#231F20"/>
<path d="M298.261 316.44C296.928 321.8 292.688 325.362 288.774 324.397C284.867 323.397 282.755 318.315 284.088 312.955C285.421 307.594 289.661 304.033 293.569 305.033C297.482 305.997 299.553 311.11 298.256 316.475" fill="white"/>
<path d="M503.884 314.679C505.298 320.021 509.595 323.497 513.488 322.444C517.381 321.392 519.376 316.243 517.963 310.902C516.549 305.561 512.252 302.085 508.359 303.137C504.466 304.189 502.435 309.333 503.884 314.679Z" fill="white"/>
<path d="M260.682 334.158C260.703 336.651 260.96 339.033 261.401 341.407C256.752 331.873 246.544 307.982 270.868 290.579C270.868 290.579 280.935 283.369 298.885 294.205C272.267 294.82 260.493 311.982 260.677 334.194" fill="white"/>
<path d="M351.892 356.599C349.889 358.452 333.469 373.22 312.077 373.39C310.097 373.417 308.181 373.27 306.239 373.046C323.133 369.04 333.401 356.224 334.985 339.664C335.163 337.787 353.562 354.292 351.898 356.563" fill="white"/>
<path d="M502.903 292.42C520.666 281.299 530.825 288.307 530.896 288.317C555.516 305.297 545.717 329.387 541.211 338.985C541.572 336.624 541.796 334.206 541.77 331.749C541.586 309.537 529.513 292.572 502.903 292.42Z" fill="white"/>
<path d="M467.557 338.557C469.42 355.059 479.885 367.714 496.844 371.406C494.903 371.658 492.973 371.839 490.993 371.866C469.601 372.036 452.9 357.584 450.908 355.779C449.207 353.506 467.33 336.692 467.557 338.557Z" fill="white"/>
<path d="M301.542 412.559C301.542 412.559 317.488 413.789 328.679 404.738C328.679 404.738 312.389 452.106 371.187 520.4C371.187 520.4 314.77 478.607 301.573 412.6" fill="white"/>
<path d="M238.04 322.423C238.04 322.423 170.096 356.145 202.189 436.61C202.189 436.61 184.841 363.305 242.772 339.071C242.772 339.071 239.798 331.734 238.005 322.418" fill="white"/>
<path d="M248.738 239.899C248.738 239.899 293.099 224.242 329.797 262.691C329.797 262.691 298.389 206.418 248.738 239.899Z" fill="white"/>
<path d="M337.275 243.48C337.275 243.48 358.051 216.273 414.869 211.966C414.869 211.966 357.985 207.624 320.795 227.818C320.795 227.818 327.336 231.93 337.275 243.48Z" fill="white"/>
<path d="M402.121 359.484L402.193 359.495C404.909 359.434 415.622 359.718 427.913 364.745L427.984 364.756C427.984 364.756 424.678 358.394 421.295 357.071C414.846 354.511 381.778 343.963 360.793 374.689C378.241 360.371 398.203 359.507 402.05 359.473L402.121 359.484Z" fill="white"/>
<path d="M491.915 252.119C505.425 227.205 527.468 225.89 540.191 227.616C493.194 213.181 466.604 268.089 465.505 270.484C464.799 271.986 463.494 273.105 462.015 273.684C466.06 273.314 481.824 270.709 491.951 252.124" fill="white"/>
</g>
<defs>
<clipPath id="clip0_160_30">
<rect width="810" height="584" fill="white"/>
</clipPath>
</defs>
</svg>
