<svg width="706" height="566" viewBox="0 0 706 566" fill="none" xmlns="http://www.w3.org/2000/svg">
<g clip-path="url(#clip0_198_3)">
<path d="M245.223 27.9988L215.412 37.4619L190.577 45.3449C190.243 45.4494 148.651 57.9836 112.197 48.4661C107.977 47.3578 103.937 46.0052 100.194 44.3878L54.9307 24.8631L0.617148 1.41277L35.9979 48.8452L65.2782 88.1144C66.0084 89.2284 72.6611 99.7224 72.0992 112.714L70.4738 151.717L68.4966 198.515L98.415 162.439L123.333 132.394L127.121 127.807C135.736 129.381 144.076 130.115 152.153 129.977C152.785 135.22 153.486 140.387 154.241 145.434C156.467 160.089 159.138 173.25 162.25 184.842C149.819 188.814 138.188 195.369 128.772 203.911C116.872 214.737 102.978 233.821 100.809 264.776C89.8554 271.019 76.7344 280.622 65.419 294.765C41.8057 324.379 34.4039 362.053 43.3553 406.735L44.6367 412.949L47.395 426.4L50.7097 442.579L66.717 438.568L80.0608 435.216L85.5913 433.845C87.1269 433.624 96.545 432.567 111.142 436.388C119.849 438.65 128.869 442.239 137.988 446.986C145.377 475.183 158.031 501.388 174.838 523.239C189.73 542.589 202.494 551.537 202.601 551.62L211.983 557.887L213.792 559.082L222.369 564.813L226.917 567.865L232.359 567.426L242.642 566.607L244.799 566.445L256.007 565.567C256.007 565.567 271.746 563.956 294.16 554.392C319.504 543.567 343.407 526.889 363.631 505.924C373.923 506.225 383.526 507.516 392.233 509.779C406.8 513.586 414.468 519.096 415.782 520.108L419.914 524.02L429.887 533.426L441.864 544.725L452.656 532.257L461.661 521.88L465.752 517.175C495.517 482.506 507.509 445.996 501.407 408.618C498.483 390.74 491.745 375.963 485.238 365.138C495.407 343.581 497.587 321.554 491.442 300.958C487.273 286.956 480.146 276.072 473.214 268.082C482.056 259.215 491.384 248.512 501.03 236.114C504.195 232.043 507.382 227.838 510.522 223.577C517.503 227.632 525.164 231.123 533.454 233.922L534.541 239.762L541.56 278.157L550.003 324.233L571.198 282.434L588.85 247.596C594.761 235.923 605.775 230.031 606.896 229.447L651.687 209.51L705.835 185.396L646.898 179.332L597.8 174.268C593.776 173.857 589.587 173.086 585.367 171.978C548.913 162.461 518.743 131.146 518.449 130.836L500.693 111.948L479.34 89.24L473.637 119.893L468.886 145.462C461.476 185.435 425.368 212.409 399.971 226.772C383.516 217.309 365.131 209.369 344.097 202.704C337.377 200.42 325.563 197.216 323.926 196.853C322.94 196.562 311.24 193.588 304.776 192.352C283.596 187.89 264.381 185.735 246.376 185.806C231.58 161.029 213.697 120.21 226.678 82.194L235.107 57.4942L245.216 27.8518L245.223 27.9988Z" fill="#840029"/>
<path d="M220.147 52.5416L195.299 60.4547C194.878 60.5928 149.438 74.5938 108.153 63.8059C103.158 62.4992 98.353 60.8445 93.9046 58.9516L48.6416 39.427L78.1262 78.9662C78.1262 78.9662 88.7246 93.7934 87.8887 113.428L86.2633 152.431L111.195 122.355L121.125 110.371C140.383 115.279 155.512 114.802 166.244 112.887C167.002 121.1 168.152 131.682 169.918 143.148C173.18 164.737 177.416 182.654 182.607 196.784C182.49 196.804 182.386 196.794 182.27 196.815C156.666 199.357 115.734 218.696 116.427 274.588C105.22 279.856 90.2888 289.164 77.8909 304.699C57.3354 330.483 50.9635 363.791 58.9804 403.67L60.2449 409.841L63.0032 423.292L76.3337 419.97L82.4449 418.424C83.3929 418.231 95.627 416.007 115.262 421.118C127.19 424.228 139.465 429.398 151.805 436.539C167.769 506.445 211.096 538.247 211.537 538.549L220.89 544.803L222.699 545.998L231.275 551.729L241.559 550.91L243.716 550.748L254.924 549.87C255.482 549.828 308.814 543.271 356.961 490.098C371.206 489.913 384.426 491.399 396.383 494.522C416.049 499.646 425.645 507.627 426.321 508.213L430.884 512.531L440.857 521.937L449.863 511.56L453.954 506.855C480.523 475.92 491.265 443.786 485.951 411.217C482.753 391.6 474.247 376.186 467.054 366.101C493.903 319.639 470.791 283.741 450.266 267.948C461.991 258.087 474.85 244.195 488.732 226.437C495.88 217.254 502.124 208.57 506.822 201.759C515.234 208.677 528.21 216.494 547.404 221.627L550.206 236.932L557.225 275.327L574.877 240.489C583.765 222.972 600.156 215.244 600.329 215.177L645.38 195.14L596.282 190.075C591.473 189.57 586.482 188.661 581.487 187.354C540.202 176.566 507.455 142.134 507.1 141.798L489.284 122.883L484.533 148.452C475.038 199.737 426.181 231.405 399.647 245.086C387.109 237.173 368.192 227.019 339.248 217.832C332.933 215.691 327.664 214.191 324.383 213.317C323.28 213.046 321.64 212.609 320.033 212.259C319.168 212.021 317.764 211.617 315.84 211.091C312.783 210.28 307.882 209.087 301.775 207.937C278.23 202.97 257.242 201.003 237.879 201.949C221.698 177.136 195.199 126.035 211.848 77.1909L220.277 52.4911L220.147 52.5416Z" fill="white"/>
<path d="M220.147 52.5417L211.718 77.2415C195.082 126.056 221.581 177.157 237.749 201.999C257.112 201.053 278.1 203.02 301.645 207.987C307.751 209.137 319.051 212.041 319.903 212.31C321.54 212.673 332.816 215.711 339.118 217.883C368.061 227.069 386.979 237.224 399.517 245.136C426.05 231.455 474.908 199.787 484.403 148.502L489.154 122.934L506.97 141.848C507.325 142.185 540.072 176.617 581.357 187.405C586.352 188.712 591.343 189.621 596.152 190.126L645.25 195.19L600.199 215.228C600.199 215.228 583.635 223.022 574.747 240.54L557.095 275.377L550.076 236.982L547.274 221.677C528.08 216.545 515.104 208.727 506.692 201.809C501.994 208.621 495.78 217.317 488.602 226.488C474.75 244.259 461.891 258.151 450.136 267.998C470.691 283.805 493.803 319.703 466.924 366.151C474.117 376.236 482.623 391.65 485.821 411.268C491.149 443.807 480.393 475.97 453.824 506.905L449.733 511.61L440.727 521.988L430.754 512.582L426.191 508.264C425.485 507.664 415.919 499.697 396.253 494.573C384.326 491.463 371.076 489.964 356.831 490.148C308.697 543.291 255.365 549.849 254.794 549.92L231.145 551.78L211.407 538.6C210.966 538.297 167.669 506.509 151.675 436.59C139.352 429.492 127.076 424.322 115.132 421.169C95.5402 416.041 83.2628 418.281 82.3148 418.474L76.2036 420.02L62.8731 423.343L60.1148 409.892L58.8502 403.721C50.8467 363.811 57.2053 330.534 77.7607 304.75C90.1587 289.214 105.12 279.92 116.296 274.639C115.604 218.746 156.535 199.408 182.139 196.865C182.256 196.845 182.36 196.855 182.477 196.834C177.316 182.718 173.063 164.757 169.787 143.198C168.052 131.746 166.902 121.164 166.114 112.937C155.382 114.853 140.253 115.33 120.995 110.422L111.065 122.406L86.1332 152.481L87.7586 113.479C88.5944 93.844 78.073 79.0867 77.9961 79.0168L48.5115 39.4775L93.7745 59.0022C98.2095 60.9251 103.028 62.5498 108.023 63.8565C149.308 74.6444 194.748 60.6434 195.169 60.5053L220.017 52.5921" fill="white"/>
<path d="M497.354 150.841C485.936 212.502 425.068 247.679 398.642 260.221C398.552 260.181 398.492 260.154 398.431 260.128C385.561 251.421 366.615 240.354 335.012 230.353C324.61 226.801 317.334 225.207 316.589 225.021C315.857 224.806 309.225 222.812 299.076 220.884C267.052 214.115 245.768 214.284 231.138 215.665C213.985 191.179 179.308 131.573 199.281 73.0071C199.281 73.0071 138.163 92.3882 88.676 71.0335C88.676 71.0335 102.089 89.0108 101.033 113.945L116.481 95.3315C156.451 108.201 178.091 95.3446 178.091 95.3446C178.091 95.3446 182.197 178.829 204.194 211.392C197.92 209.808 191.06 209.224 183.481 209.942C177.281 210.55 123.947 217.682 130.028 283.186C112.773 289.453 54.9444 317.014 71.8316 401.107L73.0926 407.205L79.364 405.622C79.6844 405.547 113.526 397.541 163.151 428.023C163.242 428.063 163.302 428.089 163.392 428.129C176.738 494.684 216.709 526.19 218.779 527.608L228.131 533.862L228.023 523.2C227.68 489.877 245.234 473.165 252.889 468.775C257.429 476.321 264.534 499.463 247.912 528.388L242.608 537.63L253.816 536.752C256.31 536.558 306.617 528.629 350.807 477.09C350.881 477.086 350.984 477.096 351.058 477.092C409.244 474.766 434.846 498.271 435.094 498.524L439.811 502.982L443.902 498.277C499.803 433.166 462.88 380.843 450.854 366.968C488.22 312.811 445.209 280.537 440.063 276.969C435.083 273.51 430.089 270.981 425.147 269.229C460.305 251.73 504.94 180.708 504.94 180.708C504.94 180.708 517.52 202.526 558.673 210.845L563.011 234.636C574.281 212.378 594.772 203.26 594.772 203.26C541.146 197.707 497.358 150.914 497.358 150.914" fill="#231F20"/>
<path d="M439.222 371.329L435.585 367.924L438.423 364.104C472.253 318.603 442.936 292.845 433.175 286.051C394.589 259.222 356.895 302.729 355.306 304.617C353.284 306.998 349.558 307.295 347.006 305.341C344.454 303.386 343.976 299.829 345.985 297.478C353.878 288.156 367.826 276.435 384.56 270.371C355.836 245.307 314.738 236.293 314.307 236.21C313.859 236.085 272.46 223.52 235.179 231.338C246.804 244.82 253.222 261.866 255.544 273.865C256.131 276.931 254.013 279.773 250.794 280.222C247.576 280.672 244.503 278.595 243.916 275.529C243.434 273.121 231.851 216.736 185.093 221.268C173.221 222.428 135.056 230.54 142.287 286.766L142.894 291.496L138.061 292.671C135.194 293.384 68.7805 311.001 82.433 393.953C94.669 392.702 123.177 393.025 161.03 414.026C161.03 414.026 173.944 421.493 174.387 423.991C182.804 470.451 204.29 499.37 216.696 511.326C221.12 470.789 250.862 457.086 252.211 456.638C253.485 456.194 254.828 456.247 256.054 456.645C257.304 456.909 258.497 457.544 259.397 458.517C260.331 459.578 279.581 486.07 263.617 523.596C280.576 519.141 314.516 503.91 344.798 466.197L359.821 465.96C403.122 466.162 428.154 479.808 438.21 486.912C490.696 421.228 441.44 373.388 439.282 371.355" fill="#E03643"/>
<path d="M438.15 486.886C477.056 438.194 460.061 399.35 447.781 381.657C449.733 407.597 444.57 461.119 369.613 466.256C406.86 468.28 428.887 480.348 438.15 486.886Z" fill="#840029"/>
<path d="M163.642 382.799C163.642 382.799 135.941 395.137 114.461 396.155C127.43 398.861 143.142 404.146 160.986 414.043C160.986 414.043 161.926 414.601 163.26 415.406C162.58 404.493 160.52 384.334 163.642 382.799Z" fill="#840029"/>
<path d="M365.387 435.535L365.448 435.561C365.97 434.785 366.647 434.148 367.421 433.698C356.849 432.159 332.189 425.728 313.776 398.886C313.776 398.886 285.881 352.818 235.06 375.991C235.06 375.991 224.163 382.511 234.339 382.832C234.339 382.832 277.094 351.958 328.782 435.557C328.782 435.557 319.148 492.609 267.014 513.871C266.119 517.037 265.063 520.241 263.631 523.566C279.441 519.431 310.015 505.88 338.622 473.506C347.957 462.951 357.082 450.431 365.387 435.535Z" fill="#840029"/>
<path d="M178.664 269.518C178.968 269.4 185.096 266.35 192.669 269.552C201.609 273.321 207.828 283.659 217.716 305.547C217.716 305.547 226.162 331.513 238.372 342.447C239.162 343.263 240.002 344.21 240.699 345.237L240.789 345.277C240.137 341.463 236.757 336.013 226.226 316.394C219.103 303.138 213.839 271.922 197.717 262.031C171.13 245.718 159.209 267.581 154.719 286.537C151.871 298.519 152.59 309.018 152.59 309.018C152.427 295.958 156.598 277.725 178.634 269.505" fill="#840029"/>
<path d="M360.819 342.923C380.168 328.659 390.648 322.674 400.301 323.772C408.457 324.676 412.306 330.369 412.523 330.609C423.053 343.068 423.746 355.499 420.991 365.723C427.967 347.001 435.65 313.085 398.73 314.551C379.814 315.299 359.971 339.958 347.278 348.023C328.481 359.977 321.658 364.519 319.253 367.522L321.548 366.233C322.629 365.739 323.714 365.318 324.745 365.018C340.73 361.465 360.835 342.966 360.849 342.936" fill="#840029"/>
<path d="M317.087 399.773C305.542 375.857 282.497 369.024 278.531 367.992L278.471 367.966L278.411 367.939C274.459 366.877 250.986 361.582 229.208 376.788C227.91 377.69 227.67 379.455 228.671 380.688C229.079 381.228 229.685 381.568 230.296 381.73C231.131 381.955 232.053 381.822 232.823 381.299C251.977 367.884 273.127 372.333 276.762 373.219L277.059 373.278L277.33 373.398L277.357 373.338C280.952 374.314 301.565 380.792 311.708 401.859C312.1 402.679 312.863 403.232 313.698 403.457C314.34 403.633 315.001 403.601 315.651 403.348C317.139 402.746 317.797 401.094 317.097 399.669" fill="#231F20"/>
<path d="M450.787 367.119C488.153 312.961 445.142 280.687 439.996 277.119C433.007 272.269 426.012 269.143 419.05 267.651C413.264 266.427 405.704 263.52 398.368 260.351C385.498 251.644 366.552 240.578 334.949 230.577C324.547 227.025 317.271 225.431 316.526 225.245C315.794 225.03 309.162 223.036 299.013 221.108C256.442 212.091 232.803 215.393 218.615 217.402C209 211.824 197.384 208.743 183.445 210.106C177.245 210.714 123.91 217.846 129.991 283.35C112.736 289.616 54.9079 317.178 71.7952 401.271L73.0562 407.369L79.3276 405.785C79.648 405.711 113.489 397.704 163.115 428.187C163.205 428.226 163.265 428.253 163.356 428.293C176.702 494.847 216.672 526.354 218.742 527.772L228.095 534.026L227.987 523.364C227.656 490.01 245.211 473.299 252.853 468.939C257.393 476.485 264.498 499.627 247.876 528.551L242.571 537.793L253.78 536.915C256.274 536.722 306.581 528.792 350.771 477.253C350.831 477.28 350.948 477.26 351.021 477.256C409.207 474.929 434.81 498.434 435.057 498.688L439.775 503.146L443.866 498.441C499.766 433.33 462.813 380.993 450.817 367.132M438.149 486.885C428.094 479.782 403.049 466.165 359.791 465.947C363.861 460.477 367.836 454.569 371.701 448.181C375.695 451.996 379.843 455.627 384.188 459.057C389.559 463.337 397.224 455.749 391.793 451.443C385.304 446.274 379.066 440.784 373.517 434.628C370.843 431.648 367.179 432.944 365.448 435.561L365.388 435.534C331.477 496.111 284.561 518.095 263.587 523.582C278.694 488.16 262.357 462.559 259.712 458.944L276.799 393.563C277.399 391.31 275.935 389.008 273.55 388.386C271.164 387.764 268.753 389.073 268.166 391.297L250.926 457.186C245.171 460.041 220.63 474.746 216.636 511.299C200.974 496.214 170.666 453.901 170.935 384.113C170.935 384.113 170.935 384.113 170.995 384.14C170.717 383.549 170.495 382.911 170.273 382.274L170.183 382.234C169.107 380.356 167.075 379.098 164.335 380.011C156.449 382.644 148.332 384.419 140.133 385.727C133.31 386.851 136.259 397.184 143.039 396.077C148.49 395.211 153.871 394.097 159.194 392.707C159.459 400.164 160.031 407.252 160.896 414.002C123.044 393.002 94.5354 392.678 82.2993 393.93C68.6468 310.978 135.06 293.36 137.927 292.648L142.76 291.473L142.153 286.743C134.922 230.517 173.101 222.375 184.973 221.215C231.731 216.683 243.313 273.068 243.796 275.476C244.383 278.541 247.486 280.631 250.674 280.169C253.892 279.719 256.024 276.847 255.423 273.811C253.089 261.843 246.683 244.766 235.046 231.315C272.357 223.51 312.606 235.747 313.054 235.873C313.515 235.968 355.776 245.28 384.47 270.331C367.736 276.395 353.774 288.146 345.895 297.438C343.873 299.819 344.364 303.346 346.916 305.301C349.498 307.268 353.194 306.958 355.216 304.577C356.792 302.719 394.499 259.182 433.085 286.011C442.876 292.818 472.162 318.563 438.332 364.064L435.495 367.883L439.132 371.289C441.289 373.321 490.559 421.132 438.059 486.845" fill="#231F20"/>
<path d="M238.403 342.46C226.179 331.556 217.732 305.591 217.716 305.547C207.841 283.628 201.61 273.321 192.669 269.552C185.096 266.35 178.955 269.43 178.664 269.518C142.637 282.963 154.377 323.12 154.586 323.788C163.819 345.855 177.344 359.349 194.804 363.931C217.272 369.789 237.673 358.436 238.534 357.953L238.947 357.668C246.187 352.59 242.07 346.203 238.403 342.46Z" fill="#231F20"/>
<path d="M316.82 377.996L317.018 378.443C317.514 379.274 329.752 399.179 352.22 405.037C369.664 409.576 388.076 404.433 406.917 389.692C407.454 389.21 437.356 359.927 412.493 330.596C412.276 330.356 408.427 324.663 400.271 323.759C390.618 322.661 380.138 328.646 360.789 342.909C360.789 342.909 340.669 361.439 324.685 364.992C319.675 366.485 312.937 370.021 316.776 378.013" fill="#231F20"/>
<path d="M197.616 305.232C195.173 309.622 190.606 311.743 187.4 309.967C184.208 308.161 183.56 303.198 186.002 298.808C188.445 294.418 193.012 292.297 196.204 294.103C199.41 295.879 200.015 300.859 197.602 305.263" fill="white"/>
<path d="M378.516 352.503C378.489 357.528 381.436 361.6 385.102 361.6C388.769 361.601 391.743 357.553 391.77 352.528C391.796 347.503 388.85 343.431 385.183 343.431C381.517 343.43 378.513 347.464 378.516 352.503Z" fill="white"/>
<path d="M160.426 311.868C159.852 314.061 159.513 316.214 159.337 318.403C157.518 308.929 154.229 285.529 179.709 276.024C179.709 276.024 190.257 272.084 203.441 285.858C179.931 280.079 165.523 292.352 160.412 311.898" fill="white"/>
<path d="M235.158 353.224C232.96 354.376 215.043 363.443 196.226 358.514C194.482 358.068 192.834 357.484 191.183 356.827C206.963 357.32 219.017 348.505 224.338 334.341C224.939 332.736 237.172 351.595 235.171 353.194" fill="white"/>
<path d="M382.938 332.725C401.17 327.178 408.423 335.742 408.483 335.769C426.062 356.522 411.744 375.346 405.511 382.703C406.389 380.716 407.159 378.646 407.719 376.483C412.83 356.937 406.259 339.176 382.938 332.725Z" fill="white"/>
<path d="M340.963 364.842C338.682 379.773 344.864 393.369 358.873 400.636C357.11 400.397 355.373 400.097 353.629 399.651C334.812 394.722 323.582 378.068 322.262 376.01C321.309 373.611 341.207 363.151 340.963 364.842Z" fill="white"/>
<path d="M177.683 390.404C177.683 390.404 191.387 395.27 203.358 389.98C203.358 389.98 177.817 427.701 213.217 501.622C213.217 501.622 173.617 451.534 177.699 390.447" fill="white"/>
<path d="M143.337 296.189C143.337 296.189 75.6967 309.667 84.7684 387.933C84.7684 387.933 86.9396 319.454 143.539 311.929C143.539 311.929 142.67 304.781 143.307 296.176" fill="white"/>
<path d="M172.314 226.273C172.314 226.273 214.967 223.058 238.052 265.527C238.052 265.527 223.841 208.664 172.314 226.273Z" fill="white"/>
<path d="M249.176 250.437C249.176 250.437 273.869 231.481 324.762 241.188C324.762 241.188 275.864 223.872 238.428 232.773C238.428 232.773 243.194 237.936 249.176 250.437Z" fill="white"/>
<path d="M278.561 367.681L278.621 367.708C281.02 368.3 290.355 371.092 299.951 378.424L300.011 378.451C300.011 378.451 298.619 372.08 295.964 370.115C290.91 366.336 264.389 349.225 238.677 371.22C257.39 362.792 275.116 366.772 278.501 367.655L278.561 367.681Z" fill="white"/>
<path d="M382.859 294.733C400.63 276.066 420.29 280.144 431.049 284.68C393.224 260.85 356.852 302.746 355.32 304.587C354.343 305.739 352.932 306.411 351.497 306.569C355.134 307.204 369.59 308.66 382.889 294.746" fill="white"/>
</g>
<defs>
<clipPath id="clip0_198_3">
<rect width="706" height="566" fill="white"/>
</clipPath>
</defs>
</svg>
