<svg xmlns="http://www.w3.org/2000/svg" width="40" height="35" viewBox="0 0 40 35" fill="none">
<rect x="-3.05176e-05" width="40" height="6" rx="3" fill="white"/>
<path d="M-3.05176e-05 32C-3.05176e-05 30.3431 1.34312 29 2.99997 29H37C38.6568 29 40 30.3431 40 32C40 33.6569 38.6568 35 37 35H2.99997C1.34311 35 -3.05176e-05 33.6569 -3.05176e-05 32Z" fill="white"/>
<path d="M-3.05176e-05 17.5C-3.05176e-05 15.8431 1.34312 14.5 2.99997 14.5H37C38.6568 14.5 40 15.8431 40 17.5C40 19.1569 38.6568 20.5 37 20.5H2.99997C1.34311 20.5 -3.05176e-05 19.1569 -3.05176e-05 17.5Z" fill="white"/>
</svg>