<svg width="115" height="115" viewBox="0 0 115 115" fill="none" xmlns="http://www.w3.org/2000/svg">
<g id="paper-icon">
<circle id="Ellipse 2" cx="57.5" cy="57.5" r="57.5" fill="#CB333B"/>
<path id="Vector" d="M75.4897 36.5308H38.2932V83.1558H75.4897V36.5308Z" stroke="white" stroke-width="2" stroke-linecap="round" stroke-linejoin="round"/>
<path id="Vector_2" d="M75.5171 32.3047H38.2635C36.1113 32.3047 34.3667 34.0372 34.3667 36.1744V83.4418C34.3667 85.579 36.1113 87.3115 38.2635 87.3115H75.5171C77.6692 87.3115 79.4138 85.579 79.4138 83.4418V36.1744C79.4138 34.0372 77.6692 32.3047 75.5171 32.3047Z" stroke="white" stroke-width="2" stroke-linecap="round" stroke-linejoin="round"/>
<path id="Vector_3" d="M67.1247 31.989C67.1247 31.2786 66.5442 30.7021 65.8288 30.7021H62.8303C61.8955 30.7021 61.1687 29.935 61.171 29.0067C61.171 29.0022 61.171 28.9976 61.171 28.9954C61.0293 26.4375 59.3266 24.9441 57.0617 24.9781C54.9544 25.0099 53.1352 26.2968 53.0803 28.8161C53.0803 28.8978 53.0758 28.9772 53.0758 29.0566C53.0895 29.9668 52.3353 30.7021 51.4188 30.7021H48.4179C47.7026 30.7021 47.122 31.2786 47.122 31.989L46.2627 38.1919H67.9795L67.1201 31.989H67.1247Z" fill="#CB333B" stroke="white" stroke-width="2" stroke-linecap="round" stroke-linejoin="round"/>
<path id="Vector_4" d="M58.3404 30.0623C59.0115 29.3958 59.0115 28.3151 58.3404 27.6486C57.6692 26.9821 56.5809 26.9821 55.9098 27.6486C55.2386 28.3151 55.2386 29.3958 55.9098 30.0623C56.5809 30.7289 57.6692 30.7289 58.3404 30.0623Z" stroke="white" stroke-width="2" stroke-linecap="round" stroke-linejoin="round"/>
<path id="Vector_5" d="M52.4519 51.1401H67.9841" stroke="white" stroke-width="2" stroke-linecap="round" stroke-linejoin="round"/>
<path id="Vector_6" d="M45.0217 49.9145L46.9255 51.9141C47.0193 52.0139 47.1815 52.023 47.2867 51.9345L50.9297 47.3657" stroke="white" stroke-width="2" stroke-linecap="round" stroke-linejoin="round"/>
<path id="Vector_7" d="M52.4519 59.345H67.9841" stroke="white" stroke-width="2" stroke-linecap="round" stroke-linejoin="round"/>
<path id="Vector_8" d="M45.0217 58.1194L46.9255 60.1189C47.0193 60.2188 47.1815 60.2278 47.2867 60.1393L50.9297 55.5706" stroke="white" stroke-width="2" stroke-linecap="round" stroke-linejoin="round"/>
<path id="Vector_9" d="M52.4519 67.5474H67.9841" stroke="white" stroke-width="2" stroke-linecap="round" stroke-linejoin="round"/>
<path id="Vector_10" d="M45.0217 66.3217L46.9255 68.3213C47.0193 68.4212 47.1815 68.4302 47.2867 68.3417L50.9297 63.7729" stroke="white" stroke-width="2" stroke-linecap="round" stroke-linejoin="round"/>
</g>
</svg>
