<svg width="114" height="114" viewBox="0 0 114 114" fill="none" xmlns="http://www.w3.org/2000/svg">
<g id="student-icon">
<circle id="Ellipse 3" cx="57" cy="57" r="57" fill="#CB333B"/>
<path id="Vector" d="M69.7998 37.2756C69.7998 38.5904 69.4886 38.1178 69.0195 41.11C68.8662 42.0879 67.8137 42.0786 67.8137 42.0786C67.5826 43.6741 66.9007 45.1667 65.8504 46.3715L65.4546 46.8253V49.8643C65.4546 51.3358 66.411 52.6249 67.7954 53.0319C70.3787 53.7923 74.3075 54.583 77.1791 55.3316C79.1812 55.8533 80.7417 57.4559 81.2337 59.5076L83.5973 76.7658C83.9291 79.1919 84.0962 81.639 84.0962 84.0884V87.1133" stroke="white" stroke-width="2" stroke-linecap="round" stroke-linejoin="round"/>
<path id="Vector_2" d="M37.546 60.0061C38.0357 57.9637 39.5802 55.8582 41.5732 55.3388C44.4517 54.5878 48.4056 53.7948 50.9981 53.0298C52.3778 52.6227 53.3251 51.3336 53.3251 49.8668V46.8278L52.9293 46.374C51.879 45.1692 51.1971 43.6766 50.966 42.0811C50.966 42.0811 49.9135 42.0904 49.7602 41.1125C49.2888 38.1203 48.9136 38.2747 48.9136 36.96" stroke="white" stroke-width="2" stroke-linecap="round" stroke-linejoin="round"/>
<path id="Vector_3" d="M52.0117 30.2922C52.0117 30.2922 57.1715 37.6054 66.6971 33.5909L68.0196 37.175L69.7472 37.6358C69.7472 37.6358 73.708 22.9791 60.3452 21.69C60.3452 21.69 55.0527 21.2596 52.0117 25.1314C52.0117 25.1314 45.5294 23.985 48.9685 37.175L50.243 37.4955L52.975 31.3824" stroke="white" stroke-width="2" stroke-linecap="round" stroke-linejoin="round"/>
<path id="Vector_4" d="M56.9129 60.0061L59.3887 57.5567L53.2656 50.4868L59.3887 57.5567" stroke="white" stroke-width="2" stroke-linecap="round" stroke-linejoin="round"/>
<path id="Vector_5" d="M65.4683 46.823L61.3108 49.1344C59.8898 49.7146 58.3018 49.6795 56.9061 49.0432L53.3274 46.8253" stroke="white" stroke-width="2" stroke-linecap="round" stroke-linejoin="round"/>
<path id="Vector_6" d="M75.4995 54.9153V83.3304" stroke="white" stroke-width="2" stroke-linecap="round" stroke-linejoin="round"/>
<path id="Vector_7" d="M43.6782 54.8193V60.0059" stroke="white" stroke-width="2" stroke-linecap="round" stroke-linejoin="round"/>
<path id="Vector_8" d="M57.938 38.0476C58.7343 37.6475 59.6655 37.6475 60.4595 38.0476" stroke="white" stroke-width="2" stroke-linecap="round" stroke-linejoin="round"/>
<path id="Vector_9" d="M65.9534 38.0479L69.7448 37.6338" stroke="white" stroke-width="2" stroke-linecap="round" stroke-linejoin="round"/>
<path id="Vector_10" d="M52.4465 38.0478L48.9685 37.1729" stroke="white" stroke-width="2" stroke-linecap="round" stroke-linejoin="round"/>
<path id="Vector_11" d="M54.229 36.2393H56.1533C56.9839 36.2393 57.6589 36.9294 57.6589 37.7786V39.0981C57.6589 39.9473 56.9839 40.6375 56.1533 40.6375H54.229C53.3984 40.6375 52.7234 39.9473 52.7234 39.0981V37.7786C52.7234 36.9294 53.3984 36.2393 54.229 36.2393Z" stroke="white" stroke-width="2" stroke-linecap="round" stroke-linejoin="round"/>
<path id="Vector_12" d="M64.171 36.2393H62.2444C61.4128 36.2393 60.7388 36.9285 60.7388 37.7786V39.1004C60.7388 39.9506 61.4128 40.6398 62.2444 40.6398H64.171C65.0025 40.6398 65.6766 39.9506 65.6766 39.1004V37.7786C65.6766 36.9285 65.0025 36.2393 64.171 36.2393Z" stroke="white" stroke-width="2" stroke-linecap="round" stroke-linejoin="round"/>
<path id="Vector_13" d="M26.6956 87.1133H84.0939" stroke="white" stroke-width="2" stroke-linecap="round" stroke-linejoin="round"/>
<path id="Vector_14" d="M63.1412 60.0059H29.2285C27.8296 60.0059 26.6956 61.1653 26.6956 62.5957V82.5934C26.6956 84.0237 27.8296 85.1832 29.2285 85.1832H63.1412C64.5402 85.1832 65.6742 84.0237 65.6742 82.5934V62.5957C65.6742 61.1653 64.5402 60.0059 63.1412 60.0059Z" stroke="white" stroke-width="2" stroke-linecap="round" stroke-linejoin="round"/>
<path id="Vector_15" d="M49.3376 73.2668C49.767 71.4069 48.6404 69.5434 46.8213 69.1044C45.0023 68.6654 43.1796 69.8173 42.7503 71.6771C42.3209 73.537 43.4475 75.4005 45.2666 75.8395C47.0856 76.2785 48.9083 75.1266 49.3376 73.2668Z" stroke="white" stroke-width="2" stroke-linecap="round" stroke-linejoin="round"/>
<path id="Vector_16" d="M84.0939 87.1134C84.0939 84.2757 81.8424 81.9736 79.0669 81.9736C76.2913 81.9736 74.0398 84.2757 74.0398 87.1134H84.0939Z" stroke="white" stroke-width="2" stroke-linecap="round" stroke-linejoin="round"/>
<path id="Vector_17" d="M51.323 52.9126L54.2907 60.0059" stroke="white" stroke-width="2" stroke-linecap="round" stroke-linejoin="round"/>
<path id="Vector_18" d="M67.4316 52.9971L64.4158 60.1816" stroke="white" stroke-width="2" stroke-linecap="round" stroke-linejoin="round"/>
<path id="Vector_19" d="M61.8668 60.0059L59.6565 57.8208" stroke="white" stroke-width="2" stroke-linecap="round" stroke-linejoin="round"/>
<path id="Vector_20" d="M65.3241 50.7041L59.5122 57.416" stroke="white" stroke-width="2" stroke-linecap="round" stroke-linejoin="round"/>
</g>
</svg>
